<svg width="1112" height="331" viewBox="0 0 1112 331" fill="none" xmlns="http://www.w3.org/2000/svg">
<g clip-path="url(#clip0)">
<path d="M133.637 320.825L18.5158 95.7469L240.848 90.3443L133.637 320.825Z" fill="url(#paint0_linear)"/>
<path d="M131.958 94.1631L187.553 208.077H76.3635L131.958 94.1631Z" fill="url(#paint1_linear)" fill-opacity="0.84"/>
<g filter="url(#filter0_d)">
<path d="M233.716 278H274.277C293.828 278 305.952 267.971 305.952 251.911V251.784C305.952 239.787 296.748 230.773 283.989 229.821V229.44C294.082 228.107 301.699 219.538 301.699 209.509V209.382C301.699 195.29 290.845 186.403 273.579 186.403H233.716V278ZM268.628 200.622C277.578 200.622 282.847 204.812 282.847 212.111V212.238C282.847 220.173 277.07 224.68 266.279 224.68H252.886V200.622H268.628ZM268.564 237.692C280.308 237.692 286.401 242.199 286.401 250.578V250.705C286.401 259.211 280.371 263.718 269.39 263.718H252.886V237.692H268.564ZM359.26 279.396C378.684 279.396 388.078 267.907 390.173 257.878L390.363 257.18H373.352L373.225 257.561C371.892 261.369 367.258 265.559 359.641 265.559C350.183 265.559 344.279 259.211 344.089 248.356H390.935V242.644C390.935 222.077 378.43 208.557 358.498 208.557C338.566 208.557 325.808 222.395 325.808 244.04V244.104C325.808 265.876 338.439 279.396 359.26 279.396ZM358.815 222.395C366.496 222.395 372.019 227.282 373.161 236.677H344.279C345.485 227.473 351.198 222.395 358.815 222.395ZM453.878 278H473.048V186.403H453.878V278ZM499.695 278H518.23V238.898C518.23 230.012 523.499 223.918 531.814 223.918C540.13 223.918 544.319 228.996 544.319 237.883V278H562.855V234.074C562.855 218.142 554.349 208.557 539.368 208.557C529.085 208.557 522.103 213.317 518.611 221.125H518.23V209.953H499.695V278ZM587.598 278H606.133V238.898C606.133 230.012 611.401 223.918 619.717 223.918C628.032 223.918 632.222 228.996 632.222 237.883V278H650.757V234.074C650.757 218.142 642.251 208.557 627.271 208.557C616.987 208.557 610.005 213.317 606.514 221.125H606.133V209.953H587.598V278ZM706.73 279.396C727.297 279.396 740.437 266.193 740.437 243.977V243.85C740.437 221.823 727.043 208.557 706.667 208.557C686.355 208.557 673.024 221.95 673.024 243.85V243.977C673.024 266.13 686.037 279.396 706.73 279.396ZM706.794 264.86C697.653 264.86 691.877 257.307 691.877 243.977V243.85C691.877 230.71 697.717 223.093 706.667 223.093C715.681 223.093 721.584 230.71 721.584 243.85V243.977C721.584 257.243 715.808 264.86 706.794 264.86ZM778.573 278H799.457L822.816 209.953H803.456L789.428 261.623H789.047L774.828 209.953H755.023L778.573 278ZM860.89 279.079C869.84 279.079 877.076 274.826 880.948 267.844H881.329V278H899.864V231.345C899.864 217.634 888.502 208.557 870.919 208.557C852.955 208.557 842.164 217.57 841.148 230.139L841.085 230.9H858.033L858.16 230.329C859.049 225.949 863.238 222.712 870.157 222.712C877.394 222.712 881.329 226.457 881.329 232.487V236.677L864.508 237.692C847.623 238.771 838.038 246.008 838.038 258.386V258.513C838.038 270.51 847.242 279.079 860.89 279.079ZM856.383 257.561V257.434C856.383 252.609 860.128 249.562 867.301 249.118L881.329 248.229V253.117C881.329 260.227 875.235 265.559 866.92 265.559C860.509 265.559 856.383 262.575 856.383 257.561ZM951.902 279.396C955.774 279.396 958.758 279.016 960.853 278.698V265.114C959.71 265.241 958.504 265.432 956.854 265.432C951.268 265.432 948.411 263.273 948.411 256.926V223.918H960.853V209.953H948.411V193.322H929.686V209.953H920.228V223.918H929.686V258.957C929.686 273.557 936.795 279.396 951.902 279.396ZM1014.29 279.396C1034.85 279.396 1047.99 266.193 1047.99 243.977V243.85C1047.99 221.823 1034.6 208.557 1014.22 208.557C993.911 208.557 980.581 221.95 980.581 243.85V243.977C980.581 266.13 993.594 279.396 1014.29 279.396ZM1014.35 264.86C1005.21 264.86 999.434 257.307 999.434 243.977V243.85C999.434 230.71 1005.27 223.093 1014.22 223.093C1023.24 223.093 1029.14 230.71 1029.14 243.85V243.977C1029.14 257.243 1023.36 264.86 1014.35 264.86ZM1070.58 278H1089.11V239.914C1089.11 230.012 1094.45 224.553 1103.59 224.553C1106.25 224.553 1108.79 224.934 1110.31 225.568V209.255C1108.92 208.874 1107.01 208.557 1104.98 208.557C1097.05 208.557 1091.53 213.444 1089.49 221.823H1089.11V209.953H1070.58V278Z" fill="url(#paint2_linear)" shape-rendering="crispEdges"/>
</g>
</g>
<defs>
<filter id="filter0_d" x="230.716" y="186.403" width="884.599" height="100.993" filterUnits="userSpaceOnUse" color-interpolation-filters="sRGB">
<feFlood flood-opacity="0" result="BackgroundImageFix"/>
<feColorMatrix in="SourceAlpha" type="matrix" values="0 0 0 0 0 0 0 0 0 0 0 0 0 0 0 0 0 0 127 0" result="hardAlpha"/>
<feOffset dx="1" dy="4"/>
<feGaussianBlur stdDeviation="2"/>
<feComposite in2="hardAlpha" operator="out"/>
<feColorMatrix type="matrix" values="0 0 0 0 0 0 0 0 0 0 0 0 0 0 0 0 0 0 0.25 0"/>
<feBlend mode="normal" in2="BackgroundImageFix" result="effect1_dropShadow"/>
<feBlend mode="normal" in="SourceGraphic" in2="effect1_dropShadow" result="shape"/>
</filter>
<linearGradient id="paint0_linear" x1="133.637" y1="320.825" x2="126.258" y2="17.1703" gradientUnits="userSpaceOnUse">
<stop stop-color="#20CAEF" stop-opacity="0"/>
<stop offset="0.75" stop-color="#676BD2"/>
</linearGradient>
<linearGradient id="paint1_linear" x1="131.958" y1="94.1631" x2="131.958" y2="246.048" gradientUnits="userSpaceOnUse">
<stop offset="0.380208" stop-color="#18FDEF" stop-opacity="0.78"/>
<stop offset="1" stop-color="#BDE0DA" stop-opacity="0.22"/>
</linearGradient>
<linearGradient id="paint2_linear" x1="375.189" y1="222.236" x2="1069.07" y2="245.283" gradientUnits="userSpaceOnUse">
<stop stop-color="#4D54F7"/>
<stop offset="0.507217" stop-color="#2B62ED" stop-opacity="0.6"/>
<stop offset="1" stop-color="#50C3F4" stop-opacity="0.71"/>
</linearGradient>
<clipPath id="clip0">
<rect width="1112" height="331" fill="white"/>
</clipPath>
</defs>
</svg>
