<svg width="1209" height="608" viewBox="0 0 1209 608" fill="none" xmlns="http://www.w3.org/2000/svg">
<g clip-path="url(#clip0_1:2)">
<rect width="1209" height="608" fill="white"/>
<path d="M1195.06 488.699H0V608H1195.06V488.699Z" fill="white"/>
<path d="M53 0L98.8993 87H7.10065L53 0Z" fill="#C4C4C4"/>
<path d="M132.459 85.6593L85.4659 -0.754809L177.257 -1.91273L132.459 85.6593Z" fill="#C4C4C4"/>
<path d="M295.459 85.6593L248.466 -0.754809L340.257 -1.91273L295.459 85.6593Z" fill="#C4C4C4"/>
<path d="M608.459 86.6593L561.466 0.245191L653.257 -0.912728L608.459 86.6593Z" fill="#C4C4C4"/>
<path d="M768.459 84.6593L721.466 -1.75481L813.257 -2.91273L768.459 84.6593Z" fill="#C4C4C4"/>
<path d="M928.459 87.6593L881.466 1.24519L973.257 0.0872718L928.459 87.6593Z" fill="#C4C4C4"/>
<path d="M1089.46 84.6593L1042.47 -1.75481L1134.26 -2.91273L1089.46 84.6593Z" fill="#C4C4C4"/>
<path d="M447.459 88.6593L400.466 2.24519L492.257 1.08727L447.459 88.6593Z" fill="#C4C4C4"/>
<path d="M212 0L257.899 87H166.101L212 0Z" fill="#C4C4C4"/>
<path d="M372 0L417.899 87H326.101L372 0Z" fill="#C4C4C4"/>
<path d="M527 0L572.899 87H481.101L527 0Z" fill="#C4C4C4"/>
<path d="M686 0L731.899 87H640.101L686 0Z" fill="#C4C4C4"/>
<path d="M846 0L891.899 87H800.101L846 0Z" fill="#C4C4C4"/>
<path d="M1006 0L1051.9 87H960.101L1006 0Z" fill="#C4C4C4"/>
<path d="M1165 0L1210.9 87H1119.1L1165 0Z" fill="#C4C4C4"/>
</g>
<defs>
<clipPath id="clip0_1:2">
<rect width="1209" height="608" fill="white"/>
</clipPath>
</defs>
</svg>
